<svg width="16" height="17" viewBox="0 0 16 17" fill="none" xmlns="http://www.w3.org/2000/svg">
<path d="M14.5 0.691406H1.50001C0.672854 0.691406 0 1.59092 0 2.69671V14.7284C0 15.8342 0.672854 16.7337 1.50001 16.7337H14.5C15.3271 16.7337 16 15.8342 16 14.7284V2.69671C16 1.59092 15.3271 0.691406 14.5 0.691406ZM14.5 2.02826C14.5679 2.02826 14.6325 2.0471 14.6916 2.08001L8 9.83337L1.30833 2.08001C1.36742 2.04715 1.43204 2.02826 1.49998 2.02826H14.5ZM14.5 15.3969H1.50001C1.22414 15.3969 0.999996 15.0973 0.999996 14.7284V3.49241L7.67236 11.2231C7.76661 11.3321 7.8833 11.3863 8 11.3863C8.1167 11.3863 8.23339 11.3321 8.32764 11.2231L15 3.49241V14.7284C15 15.0973 14.7759 15.3969 14.5 15.3969Z" fill="#757575"/>
</svg>
